<svg width="16" height="11" viewBox="0 0 16 11" fill="none" xmlns="http://www.w3.org/2000/svg">
<path d="M15.1284 1.34362C15.1284 1.22614 15.0935 1.1113 15.0282 1.01365C14.9629 0.915991 14.8701 0.839909 14.7615 0.795029C14.6529 0.75015 14.5335 0.73849 14.4183 0.761525C14.3031 0.784561 14.1973 0.841257 14.1143 0.924436L6.22218 8.81656L1.89255 4.48694C1.8378 4.43021 1.7723 4.38495 1.69987 4.35381C1.62744 4.32267 1.54954 4.30626 1.4707 4.30555C1.39186 4.30483 1.31367 4.31983 1.24069 4.34966C1.16771 4.37949 1.1014 4.42355 1.04564 4.47928C0.989867 4.53501 0.945756 4.60129 0.915876 4.67425C0.885996 4.7472 0.870946 4.82538 0.871603 4.90422C0.87226 4.98306 0.888611 5.06098 0.919703 5.13343C0.950795 5.20588 0.996005 5.27141 1.05269 5.3262L5.8018 10.0753C5.90957 10.1834 6.05801 10.2499 6.22218 10.2499C6.38635 10.2499 6.53479 10.1834 6.64226 10.0756L14.9539 1.764C15.0619 1.65623 15.1284 1.5078 15.1284 1.34362Z" fill="#00B0C2"/>
</svg>
