<svg width="17" height="16" viewBox="0 0 17 16" fill="none" xmlns="http://www.w3.org/2000/svg">
<g clip-path="url(#clip0_172_1203)">
<path d="M16.2969 8C16.2969 9.58225 15.8277 11.129 14.9486 12.4446C14.0696 13.7602 12.8202 14.7855 11.3583 15.391C9.89654 15.9965 8.288 16.155 6.73616 15.8463C5.18431 15.5376 3.75884 14.7757 2.64002 13.6569C1.5212 12.538 0.759278 11.1126 0.450596 9.56072C0.141915 8.00887 0.300341 6.40034 0.905842 4.93853C1.51134 3.47672 2.53672 2.22729 3.85232 1.34824C5.16791 0.469192 6.71463 0 8.29688 0C10.4186 0 12.4534 0.842855 13.9537 2.34315C15.454 3.84344 16.2969 5.87827 16.2969 8Z" fill="#00B0C2"/>
<path d="M6.14923 5.38517C6.14662 5.93951 6.33627 6.47762 6.68589 6.90783C7.03551 7.33803 7.52346 7.63372 8.06663 7.74453C8.6098 7.85534 9.17458 7.77441 9.66478 7.51552C10.155 7.25664 10.5403 6.83582 10.755 6.32474C10.9697 5.81367 11.0006 5.24395 10.8425 4.71265C10.6843 4.18134 10.3468 3.7213 9.88749 3.4109C9.42818 3.1005 8.87547 2.95893 8.3235 3.01032C7.77153 3.06171 7.25445 3.30287 6.86034 3.69272C6.63623 3.91413 6.45806 4.1776 6.33603 4.46804C6.214 4.75847 6.15052 5.07014 6.14923 5.38517ZM10.7288 8.30783H10.5297C10.4482 8.31193 10.3683 8.33249 10.295 8.36828C10.2239 8.40383 10.1386 8.45717 9.99634 8.52117C9.54542 8.70847 9.06238 8.80629 8.57411 8.80917C8.08561 8.80861 7.60212 8.7107 7.15189 8.52117C7.00611 8.45717 6.84611 8.36828 6.84611 8.36828C6.77401 8.32924 6.69344 8.30849 6.61145 8.30783H6.37678C5.96296 8.38412 5.57553 8.56497 5.2513 8.83319C4.92708 9.10141 4.67683 9.44809 4.52434 9.84028C4.33301 10.3211 4.23526 10.8339 4.23634 11.3514C4.25411 11.5007 5.45589 13.4456 8.54567 13.4456C11.6354 13.4456 12.8372 11.5007 12.8514 11.3443C12.8576 10.8366 12.7633 10.3327 12.5741 9.86161C12.4286 9.46247 12.1822 9.10787 11.8587 8.83243C11.5353 8.55699 11.146 8.37011 10.7288 8.29005V8.30783Z" fill="white"/>
</g>
<defs>
<clipPath id="clip0_172_1203">
<rect width="16" height="16" fill="white" transform="translate(0.296875)"/>
</clipPath>
</defs>
</svg>
