<svg width="12" height="12" viewBox="0 0 12 12" fill="none" xmlns="http://www.w3.org/2000/svg">
<g clip-path="url(#clip0_172_1307)">
<path d="M1.40121 6.96759C0.525289 6.96337 0 6.76977 0 5.74235C0 5.06959 0.397165 4.7633 0.744372 4.49569C0.796729 4.45539 0.846486 4.41704 0.850803 4.41296C0.885408 4.37994 0.960854 4.3027 1.03405 4.22793C1.18514 4.07349 1.32584 3.92971 1.53601 3.76635L2.46924 2.90542L2.46916 2.90533L2.62381 2.75029L2.62697 2.74699L2.78242 2.59169L2.80138 2.57186L4.46323 1.02708L4.4823 1.01055C4.65629 0.858299 4.80431 0.719256 4.92578 0.605188C5.26452 0.287052 5.4609 0.102357 5.80033 0.0231273L5.89936 0H6.16253L6.26124 0.0231273C6.62118 0.107456 6.83234 0.320406 7.22185 0.713583L7.32557 0.818082C7.40693 0.899875 7.44522 0.930021 7.53269 0.998968L7.58516 1.04039L7.63576 1.08669L9.58293 2.90568L9.58467 2.90365C9.65285 2.96621 9.73204 3.04778 9.81505 3.13296C9.84885 3.16787 9.88299 3.20242 9.91747 3.23661C9.94877 3.26778 9.99207 3.31256 10.0341 3.356C10.084 3.40766 10.1318 3.45703 10.1912 3.50901C10.2532 3.56319 10.2704 3.57633 10.287 3.58895C10.375 3.65619 10.4567 3.71844 10.5669 3.82843C10.6264 3.88786 10.6974 3.96179 10.7688 4.03615C10.8931 4.16579 11.0204 4.29856 11.1375 4.3957C11.1823 4.4328 11.2039 4.4492 11.2261 4.4659C11.5748 4.72774 12 5.04703 12 5.74235C12 6.76728 11.4746 6.96031 10.5988 6.96441V10.2772C10.5988 10.5044 10.5552 10.7122 10.4845 10.8986C10.4077 11.1021 10.2961 11.2787 10.1758 11.4255C10.0665 11.5589 9.88836 11.7162 9.69215 11.825C9.50541 11.9282 9.28847 12 9.06181 12H6.43496V7.41362H5.61697V12H3.45714C2.8696 12 2.35712 11.7013 1.99053 11.2614C1.62652 10.8248 1.40121 10.2284 1.40121 9.65877V6.96759ZM0.810526 5.74235C0.810526 6.2426 1.37635 6.10313 2.21173 6.10313V9.65877C2.21173 10.3672 2.76279 11.1532 3.45715 11.1532H4.80647V6.92761C4.80647 6.68704 4.92749 6.56682 5.16976 6.56682H6.83026C7.08146 6.56682 7.2455 6.7299 7.2455 6.97922V11.1532H9.06178C9.25276 11.1532 9.46557 10.9938 9.56154 10.8765C9.6835 10.7277 9.78831 10.5248 9.78831 10.2772V6.10313C10.6237 6.10313 11.1896 6.2426 11.1896 5.74235C11.1896 5.41895 10.8333 5.22274 10.6341 5.0573C10.421 4.88046 10.2114 4.64171 10.0097 4.4404C9.87132 4.30228 9.8086 4.27682 9.67204 4.15731C9.55696 4.05681 9.47101 3.95869 9.3602 3.84861C9.24698 3.73604 9.16528 3.64511 9.04956 3.53876L7.09747 1.71518C6.94749 1.5963 6.90496 1.56716 6.76524 1.42676C6.4124 1.0723 6.23852 0.883052 6.08387 0.846785H5.97441C5.78198 0.891765 5.5604 1.17002 5.00146 1.65887L3.33962 3.20366C3.23607 3.30691 3.1327 3.41037 3.02952 3.51402L2.03413 4.43228C1.77121 4.6339 1.62789 4.81267 1.39537 5.03485C1.19997 5.22164 0.810526 5.41253 0.810526 5.74235Z" fill="#999999"/>
</g>
<defs>
<clipPath id="clip0_172_1307">
<rect width="12" height="12" fill="white"/>
</clipPath>
</defs>
</svg>
