<svg width="17" height="16" viewBox="0 0 17 16" fill="none" xmlns="http://www.w3.org/2000/svg">
<g clip-path="url(#clip0_172_1356)">
<path d="M16.125 8C16.125 9.58225 15.6558 11.129 14.7768 12.4446C13.8977 13.7602 12.6483 14.7855 11.1865 15.391C9.72466 15.9965 8.11613 16.155 6.56428 15.8463C5.01243 15.5376 3.58697 14.7757 2.46815 13.6569C1.34933 12.538 0.587403 11.1126 0.278721 9.56072C-0.0299604 8.00887 0.128466 6.40034 0.733967 4.93853C1.33947 3.47672 2.36485 2.22729 3.68044 1.34824C4.99603 0.469192 6.54275 0 8.125 0C10.2467 0 12.2816 0.842855 13.7819 2.34315C15.2821 3.84344 16.125 5.87827 16.125 8Z" fill="#00B0C2"/>
<path d="M5.97735 5.38517C5.97474 5.93951 6.1644 6.47762 6.51402 6.90783C6.86364 7.33803 7.35159 7.63372 7.89476 7.74453C8.43793 7.85534 9.00271 7.77441 9.4929 7.51552C9.9831 7.25664 10.3684 6.83582 10.5831 6.32474C10.7979 5.81367 10.8288 5.24395 10.6706 4.71265C10.5124 4.18134 10.1749 3.7213 9.71561 3.4109C9.25631 3.1005 8.70359 2.95893 8.15163 3.01032C7.59966 3.06171 7.08258 3.30287 6.68846 3.69272C6.46436 3.91413 6.28618 4.1776 6.16415 4.46804C6.04212 4.75847 5.97864 5.07014 5.97735 5.38517ZM10.5569 8.30783H10.3578C10.2763 8.31193 10.1965 8.33249 10.1231 8.36828C10.052 8.40383 9.96668 8.45717 9.82446 8.52117C9.37354 8.70847 8.8905 8.80629 8.40224 8.80917C7.91374 8.80861 7.43025 8.7107 6.98002 8.52117C6.83424 8.45717 6.67424 8.36828 6.67424 8.36828C6.60214 8.32924 6.52156 8.30849 6.43957 8.30783H6.20491C5.79109 8.38412 5.40366 8.56497 5.07943 8.83319C4.7552 9.10141 4.50495 9.44809 4.35246 9.84028C4.16114 10.3211 4.06339 10.8339 4.06446 11.3514C4.08224 11.5007 5.28402 13.4456 8.3738 13.4456C11.4636 13.4456 12.6654 11.5007 12.6796 11.3443C12.6857 10.8366 12.5914 10.3327 12.4022 9.86161C12.2568 9.46247 12.0103 9.10787 11.6869 8.83243C11.3634 8.55699 10.9741 8.37011 10.5569 8.29005V8.30783Z" fill="white"/>
</g>
<defs>
<clipPath id="clip0_172_1356">
<rect width="16" height="16" fill="white" transform="translate(0.125)"/>
</clipPath>
</defs>
</svg>
