<svg width="7" height="6" viewBox="0 0 7 6" fill="none" xmlns="http://www.w3.org/2000/svg">
<g clip-path="url(#clip0_172_1153)">
<path d="M5.61914 6H1.08984C1.01214 6 0.937626 5.96913 0.882684 5.91419C0.827741 5.85925 0.796875 5.78473 0.796875 5.70703V0.292969C0.796875 0.215269 0.827741 0.140751 0.882684 0.0858086C0.937626 0.0308663 1.01214 0 1.08984 0L3.96727 0C4.04497 0 4.11948 0.0308663 4.17443 0.0858086C4.22937 0.140751 4.26023 0.215269 4.26023 0.292969C4.26023 0.370669 4.22937 0.445187 4.17443 0.500129C4.11948 0.555071 4.04497 0.585938 3.96727 0.585938H1.38281V5.41406H5.32617V2.41811C5.32617 2.34041 5.35704 2.26589 5.41198 2.21095C5.46692 2.156 5.54144 2.12514 5.61914 2.12514C5.69684 2.12514 5.77136 2.156 5.8263 2.21095C5.88124 2.26589 5.91211 2.34041 5.91211 2.41811V5.70703C5.91211 5.78473 5.88124 5.85925 5.8263 5.91419C5.77136 5.96913 5.69684 6 5.61914 6ZM4.76367 4.07227H1.95117C1.87347 4.07227 1.79895 4.0414 1.74401 3.98646C1.68907 3.93151 1.6582 3.857 1.6582 3.7793C1.6582 3.7016 1.68907 3.62708 1.74401 3.57214C1.79895 3.51719 1.87347 3.48633 1.95117 3.48633H4.76367C4.84137 3.48633 4.91589 3.51719 4.97083 3.57214C5.02577 3.62708 5.05664 3.7016 5.05664 3.7793C5.05664 3.857 5.02577 3.93151 4.97083 3.98646C4.91589 4.0414 4.84137 4.07227 4.76367 4.07227ZM3.16406 2.60742H1.95117C1.87347 2.60742 1.79895 2.57656 1.74401 2.52161C1.68907 2.46667 1.6582 2.39215 1.6582 2.31445C1.6582 2.23675 1.68907 2.16224 1.74401 2.10729C1.79895 2.05235 1.87347 2.02148 1.95117 2.02148H3.16406C3.24176 2.02148 3.31628 2.05235 3.37122 2.10729C3.42617 2.16224 3.45703 2.23675 3.45703 2.31445C3.45703 2.39215 3.42617 2.46667 3.37122 2.52161C3.31628 2.57656 3.24176 2.60742 3.16406 2.60742ZM4.18359 2.34961C4.12568 2.34962 4.06907 2.33247 4.0209 2.30032C3.97274 2.26817 3.93518 2.22247 3.91297 2.16899C3.89076 2.11551 3.8849 2.05665 3.89613 1.99984C3.90736 1.94303 3.93517 1.89082 3.97605 1.8498L5.70287 0.117188C5.7578 0.0625185 5.83214 0.0318383 5.90964 0.0318632C5.98714 0.0318881 6.06146 0.0626161 6.11635 0.11732C6.17124 0.172025 6.20222 0.246249 6.20251 0.323743C6.2028 0.401238 6.17237 0.47569 6.11789 0.530801L4.39113 2.26348C4.36393 2.29082 4.33159 2.31251 4.29597 2.32729C4.26035 2.34207 4.22216 2.34966 4.18359 2.34961Z" fill="#00B0C2"/>
</g>
<defs>
<clipPath id="clip0_172_1153">
<rect width="6" height="6" fill="white" transform="translate(0.5)"/>
</clipPath>
</defs>
</svg>
