<svg width="12" height="12" viewBox="0 0 12 12" fill="none" xmlns="http://www.w3.org/2000/svg">
<g clip-path="url(#clip0_172_1126)">
<path d="M6.88819 12H5.11216C4.92707 11.9997 4.74966 11.9297 4.61878 11.8052C4.48791 11.6807 4.41426 11.512 4.41396 11.3359V10.5549C4.41396 10.5163 4.36051 10.4396 4.32305 10.4242L4.30294 10.4166L2.825 9.60893L2.80614 9.59515C2.77442 9.57211 2.67926 9.56617 2.64467 9.58518L1.93474 9.975C1.77431 10.0628 1.58386 10.0865 1.40509 10.0409C1.22633 9.99536 1.07384 9.88427 0.981035 9.73198L0.093145 8.26867C0.000884565 8.11607 -0.024016 7.93492 0.0238993 7.76489C0.0718146 7.59486 0.188638 7.44983 0.348772 7.36158L1.06221 6.96962C1.08993 6.95442 1.12352 6.88458 1.11753 6.85465C1.11403 6.83719 1.03174 6.42338 1.03174 6.02096C1.03174 5.60442 1.12202 5.16649 1.12577 5.14808C1.13189 5.11886 1.0993 5.05057 1.07232 5.03572L0.348772 4.63854C0.188604 4.55028 0.0717566 4.40523 0.0238395 4.23518C-0.0240776 4.06512 0.000845066 3.88394 0.093145 3.73133L0.981035 2.26861C1.07382 2.1163 1.2263 2.00519 1.40507 1.95962C1.58383 1.91404 1.7743 1.93773 1.93474 2.02548L2.67315 2.43098C2.70836 2.45034 2.80539 2.44464 2.83786 2.42124L2.85647 2.40782L4.30369 1.62449L4.3238 1.61641C4.36126 1.60169 4.41421 1.52555 4.41421 1.48719V0.664073C4.41451 0.488078 4.48813 0.319368 4.61895 0.194899C4.74976 0.0704287 4.92712 0.00034548 5.11216 0L6.88794 0C7.07302 0.00028269 7.25044 0.0703381 7.38131 0.194815C7.51218 0.319292 7.58584 0.488037 7.58613 0.664073V1.4974C7.58613 1.53648 7.64021 1.6144 7.67792 1.62972L7.6979 1.63791L9.12277 2.42088L9.14113 2.43418C9.1731 2.45734 9.26863 2.46328 9.30347 2.44416L10.0652 2.0256C10.2257 1.93783 10.4161 1.91413 10.5949 1.95968C10.7736 2.00523 10.9261 2.11632 11.0189 2.26861L11.9068 3.73121C11.9991 3.8838 12.0241 4.06498 11.9762 4.23503C11.9283 4.40509 11.8115 4.55015 11.6513 4.63842L10.8948 5.05413C10.8675 5.06922 10.8344 5.13823 10.8404 5.1678C10.844 5.18574 10.9304 5.61178 10.9304 6.02132C10.9304 6.41672 10.8518 6.81854 10.8485 6.83553C10.8424 6.86641 10.8759 6.93601 10.9047 6.95181L11.6513 7.36182C11.8114 7.45009 11.9282 7.59513 11.9761 7.76515C12.024 7.93518 11.9991 8.11633 11.9068 8.26891L11.0189 9.73139C10.9261 9.88368 10.7736 9.99477 10.5949 10.0403C10.4161 10.0859 10.2257 10.0622 10.0652 9.9744L9.33144 9.5714C9.29723 9.55263 9.20369 9.55869 9.17247 9.58173L9.15387 9.59539L7.6984 10.4031L7.67817 10.4114C7.63933 10.4272 7.58589 10.5045 7.58589 10.5448V11.3358C7.58562 11.5118 7.51205 11.6805 7.38128 11.805C7.25051 11.9295 7.0732 11.9996 6.88819 12ZM5.13488 11.3145H6.86558V10.5449C6.86558 10.2412 7.081 9.92214 7.37047 9.79185L8.754 9.02396C9.01625 8.8458 9.41411 8.82501 9.69234 8.97776L10.4067 9.36972L11.2719 7.94441L10.5444 7.54521C10.2516 7.38439 10.0778 7.02473 10.1403 6.70855C10.1409 6.70523 10.2097 6.35104 10.2097 6.02108C10.2097 5.67663 10.1339 5.30237 10.133 5.29869C10.0682 4.98204 10.2408 4.62167 10.5345 4.46025L11.2713 4.05559L10.407 2.62993L9.664 3.0378C9.38639 3.19019 8.9884 3.17047 8.72591 2.99433L7.37247 2.2502C7.08225 2.1205 6.86621 1.80147 6.86621 1.4974V0.685572H5.13488V1.48731C5.13488 1.79244 4.9176 2.111 4.6255 2.23904L3.25009 2.98364C2.98709 3.158 2.58948 3.17665 2.31274 3.02473L1.59394 2.62993L0.728904 4.05559L1.4326 4.4422C1.72681 4.60385 1.8989 4.96481 1.83221 5.28159C1.83146 5.28527 1.75191 5.67355 1.75191 6.0212C1.75191 6.35936 1.82409 6.72198 1.82484 6.72601C1.88853 7.04243 1.71532 7.40303 1.42198 7.5635L0.728904 7.94453L1.59419 9.36984L2.28427 8.9913C2.56175 8.83891 2.95937 8.85875 3.22186 9.03501L4.627 9.80337C4.91822 9.932 5.13488 10.2506 5.13488 10.5552V11.3145Z" fill="#999999"/>
<path d="M5.99995 8.22161C5.39592 8.2216 4.81059 8.01216 4.34368 7.62897C3.87676 7.24578 3.55716 6.71254 3.43933 6.12013C3.32149 5.52771 3.41272 4.91276 3.69745 4.38006C3.98219 3.84736 4.44283 3.42988 5.00087 3.19873C5.55892 2.96758 6.17985 2.93708 6.75786 3.11243C7.33587 3.28777 7.83521 3.6581 8.17078 4.16033C8.50635 4.66256 8.6574 5.26561 8.5982 5.86672C8.53899 6.46784 8.27318 7.02982 7.84607 7.45693C7.6042 7.70013 7.31649 7.89293 6.99961 8.02419C6.68272 8.15545 6.34294 8.22255 5.99995 8.22161ZM5.99995 3.76028C4.97955 3.76028 4.14931 4.5904 4.14931 5.61092C4.14931 6.63144 4.97955 7.46144 5.99995 7.46144C7.02035 7.46144 7.85059 6.63132 7.85059 5.61092C7.85059 4.59052 7.02011 3.75981 5.99995 3.75981V3.76028Z" fill="#999999"/>
</g>
<defs>
<clipPath id="clip0_172_1126">
<rect width="12" height="12" fill="white"/>
</clipPath>
</defs>
</svg>
