<svg width="10" height="11" viewBox="0 0 10 11" fill="none" xmlns="http://www.w3.org/2000/svg">
<g clip-path="url(#clip0_172_1321)">
<path d="M4.5625 7.8125C4.5625 7.89903 4.58816 7.98362 4.63623 8.05556C4.68431 8.12751 4.75264 8.18358 4.83258 8.2167C4.91252 8.24981 5.00049 8.25847 5.08535 8.24159C5.17022 8.22471 5.24818 8.18304 5.30936 8.12186C5.37055 8.06067 5.41222 7.98272 5.4291 7.89785C5.44598 7.81299 5.43731 7.72502 5.4042 7.64508C5.37109 7.56513 5.31501 7.49681 5.24306 7.44873C5.17112 7.40066 5.08653 7.375 5 7.375C4.88397 7.375 4.77269 7.42109 4.69064 7.50314C4.6086 7.58519 4.5625 7.69647 4.5625 7.8125ZM5 6.75C4.89613 6.75 4.7965 6.70874 4.72305 6.63528C4.6496 6.56183 4.60834 6.46221 4.60834 6.35833V2.75417C4.60834 2.65029 4.6496 2.55067 4.72305 2.47722C4.7965 2.40376 4.89613 2.3625 5 2.3625C5.10388 2.3625 5.2035 2.40376 5.27695 2.47722C5.3504 2.55067 5.39167 2.65029 5.39167 2.75417V6.35833C5.39167 6.46221 5.3504 6.56183 5.27695 6.63528C5.2035 6.70874 5.10388 6.75 5 6.75ZM5 0.5C4.0111 0.5 3.0444 0.793245 2.22215 1.34265C1.39991 1.89206 0.759043 2.67295 0.380605 3.58658C0.00216641 4.50021 -0.0968503 5.50555 0.0960758 6.47545C0.289002 7.44536 0.765206 8.33627 1.46447 9.03553C2.16373 9.7348 3.05465 10.211 4.02455 10.4039C4.99446 10.5969 5.99979 10.4978 6.91342 10.1194C7.82705 9.74096 8.60794 9.1001 9.15735 8.27785C9.70676 7.45561 10 6.48891 10 5.5C10 4.17392 9.47322 2.90215 8.53554 1.96447C7.59785 1.02678 6.32609 0.5 5 0.5ZM5 1.20417C5.99132 1.20472 6.95194 1.54811 7.71898 2.1761C8.48601 2.80409 9.01225 3.67804 9.20846 4.64975C9.40466 5.62146 9.25876 6.63113 8.79549 7.50754C8.33223 8.38395 7.58011 9.07317 6.66667 9.45833C5.74891 9.84408 4.72566 9.8991 3.77183 9.61398C2.81799 9.32886 1.9928 8.72131 1.43729 7.89518C0.881775 7.06905 0.630438 6.07562 0.726237 5.08471C0.822036 4.0938 1.25902 3.16692 1.9625 2.4625C2.3618 2.06472 2.8356 1.74958 3.3568 1.53509C3.87801 1.3206 4.43639 1.21098 5 1.2125V1.20417Z" fill="#FE8C00"/>
</g>
<defs>
<clipPath id="clip0_172_1321">
<rect width="10" height="10" fill="white" transform="translate(0 0.5)"/>
</clipPath>
</defs>
</svg>
