<svg width="12" height="13" viewBox="0 0 12 13" fill="none" xmlns="http://www.w3.org/2000/svg">
<g clip-path="url(#clip0_172_1361)">
<path d="M11.6246 12.5C11.5286 12.5 11.4326 12.4628 11.3594 12.3896L0.110635 1.13957C0.0425373 1.06878 0.00492441 0.9741 0.00587704 0.875877C0.00682967 0.777653 0.0462719 0.683722 0.11573 0.614265C0.185187 0.544807 0.279118 0.505365 0.377341 0.504412C0.475565 0.50346 0.570243 0.541073 0.641035 0.60917L11.891 11.8592C11.9614 11.9295 12.0009 12.0249 12.0009 12.1244C12.0009 12.2238 11.9614 12.3192 11.891 12.3896C11.8166 12.4628 11.7206 12.5 11.6246 12.5Z" fill="#D81E06"/>
<path d="M0.375508 12.5C0.279508 12.5 0.183509 12.4628 0.110308 12.3896C0.0399904 12.3192 0.000488281 12.2239 0.000488281 12.1244C0.000488281 12.0249 0.0399904 11.9295 0.110308 11.8592L11.3603 0.610391C11.4311 0.542293 11.5258 0.50468 11.624 0.505633C11.7222 0.506586 11.8162 0.546028 11.8856 0.615485C11.9551 0.684943 11.9945 0.778874 11.9955 0.877097C11.9964 0.975321 11.9588 1.07 11.8907 1.14079L0.639508 12.3896C0.566308 12.4628 0.470308 12.5 0.375508 12.5Z" fill="#D81E06"/>
</g>
<defs>
<clipPath id="clip0_172_1361">
<rect width="12" height="12" fill="white" transform="translate(0 0.5)"/>
</clipPath>
</defs>
</svg>
