<svg width="14" height="13" viewBox="0 0 14 13" fill="none" xmlns="http://www.w3.org/2000/svg">
<path d="M13.1198 11.7043C13.1191 11.7831 13.0866 11.8584 13.0293 11.9138C12.972 11.9692 12.8947 12.0002 12.8141 12H1.83792C1.75692 11.9997 1.67932 11.9682 1.62205 11.9121C1.56478 11.8561 1.53248 11.7802 1.53221 11.701V0.965668C1.53248 0.886449 1.56478 0.81055 1.62205 0.754534C1.67932 0.698518 1.75692 0.666931 1.83792 0.666668H12.8141C12.9832 0.666668 13.1198 0.800001 13.1198 0.962334V3.33333H13.8015V0.962334C13.8009 0.706693 13.6966 0.461722 13.5115 0.281269C13.3263 0.100815 13.0755 -0.000353085 12.8141 9.25951e-07H1.83792C1.57615 0.000265651 1.32517 0.10209 1.14007 0.283131C0.954966 0.464171 0.850857 0.709638 0.850586 0.965668V11.701C0.850857 11.957 0.954966 12.2025 1.14007 12.3835C1.32517 12.5646 1.57615 12.6664 1.83792 12.6667H12.8141C13.0755 12.6668 13.3262 12.5656 13.5113 12.3852C13.6964 12.2048 13.8007 11.9599 13.8015 11.7043V9.33333H13.1198V11.7043ZM12.7552 6.66667L10.6496 8.72534C10.6183 8.75625 10.5935 8.79291 10.5768 8.83322C10.56 8.87352 10.5515 8.91667 10.5518 8.96019C10.5521 9.00371 10.5612 9.04674 10.5786 9.08681C10.596 9.12688 10.6213 9.16319 10.653 9.19367C10.6842 9.22472 10.7214 9.24943 10.7623 9.26639C10.8033 9.28336 10.8473 9.29223 10.8918 9.29251C10.9363 9.29279 10.9804 9.28447 11.0216 9.26802C11.0628 9.25157 11.1003 9.22732 11.1319 9.19667L13.7773 6.60934C13.8087 6.57869 13.8336 6.5422 13.8504 6.50201C13.8672 6.46182 13.8756 6.41875 13.8751 6.37534C13.8742 6.28729 13.838 6.20311 13.7742 6.141L11.0818 3.50767C11.0506 3.47665 11.0135 3.45195 10.9726 3.43499C10.9317 3.41803 10.8877 3.40914 10.8432 3.40883C10.7988 3.40852 10.7547 3.41679 10.7135 3.43318C10.6723 3.44957 10.6349 3.47375 10.6033 3.50433C10.572 3.53525 10.5472 3.57191 10.5304 3.61222C10.5136 3.65252 10.5051 3.69567 10.5055 3.73919C10.5058 3.78271 10.5149 3.82574 10.5323 3.86581C10.5496 3.90588 10.5749 3.94219 10.6067 3.97267L12.6826 6H6.6444V6.66667H12.7552Z" fill="#CDCDCD"/>
</svg>
