<svg width="16" height="16" viewBox="0 0 16 16" fill="none" xmlns="http://www.w3.org/2000/svg">
<g clip-path="url(#clip0_172_1242)">
<path d="M0.67872 8.65312C0.506698 8.64645 0.343941 8.57343 0.224591 8.44937C0.105242 8.3253 0.0385742 8.15984 0.0385742 7.98769C0.0385742 7.81554 0.105242 7.65008 0.224591 7.52602C0.343941 7.40195 0.506698 7.32893 0.67872 7.32227H3.34042C3.51245 7.32893 3.6752 7.40195 3.79455 7.52602C3.9139 7.65008 3.98057 7.81554 3.98057 7.98769C3.98057 8.15984 3.9139 8.3253 3.79455 8.44937C3.6752 8.57343 3.51245 8.64645 3.34042 8.65312H0.67872Z" fill="#262626"/>
<path d="M7.33398 0.666024C7.34064 0.494003 7.41367 0.331245 7.53773 0.211896C7.66179 0.0925463 7.82725 0.0258789 7.99941 0.0258789C8.17156 0.0258789 8.33702 0.0925463 8.46108 0.211896C8.58514 0.331245 8.65817 0.494003 8.66483 0.666024V3.32773C8.6683 3.41728 8.65366 3.50662 8.62178 3.59037C8.5899 3.67413 8.54145 3.7506 8.47931 3.81518C8.41718 3.87977 8.34265 3.93115 8.26019 3.96625C8.17773 4.00134 8.08903 4.01943 7.99941 4.01943C7.90978 4.01943 7.82109 4.00134 7.73862 3.96625C7.65616 3.93115 7.58163 3.87977 7.5195 3.81518C7.45736 3.7506 7.40891 3.67413 7.37703 3.59037C7.34515 3.50662 7.33051 3.41728 7.33398 3.32773V0.666024ZM7.33398 12.6467C7.33051 12.5571 7.34515 12.4678 7.37703 12.384C7.40891 12.3003 7.45736 12.2238 7.5195 12.1592C7.58163 12.0946 7.65616 12.0433 7.73862 12.0082C7.82109 11.9731 7.90978 11.955 7.99941 11.955C8.08903 11.955 8.17773 11.9731 8.26019 12.0082C8.34265 12.0433 8.41718 12.0946 8.47931 12.1592C8.54145 12.2238 8.5899 12.3003 8.62178 12.384C8.65366 12.4678 8.6683 12.5571 8.66483 12.6467V15.3084C8.6683 15.3979 8.65366 15.4873 8.62178 15.571C8.5899 15.6548 8.54145 15.7313 8.47931 15.7959C8.41718 15.8604 8.34265 15.9118 8.26019 15.9469C8.17773 15.982 8.08903 16.0001 7.99941 16.0001C7.90978 16.0001 7.82109 15.982 7.73862 15.9469C7.65616 15.9118 7.58163 15.8604 7.5195 15.7959C7.45736 15.7313 7.40891 15.6548 7.37703 15.571C7.34515 15.4873 7.33051 15.3979 7.33398 15.3084V12.6467ZM11.9935 7.98721C11.9935 8.35562 12.291 8.65314 12.6594 8.65314H15.3211C15.4931 8.64647 15.6559 8.57345 15.7752 8.44938C15.8946 8.32532 15.9612 8.15986 15.9612 7.98771C15.9612 7.81556 15.8946 7.6501 15.7752 7.52603C15.6559 7.40197 15.4931 7.32895 15.3211 7.32228H12.6594C12.4829 7.32228 12.3137 7.39231 12.1889 7.51697C12.064 7.64164 11.9937 7.81077 11.9935 7.98721ZM2.35202 3.2808C2.2877 3.21955 2.23629 3.14605 2.20081 3.06463C2.16532 2.98321 2.14649 2.89551 2.1454 2.8067C2.14432 2.71789 2.16101 2.62976 2.1945 2.5475C2.22799 2.46524 2.27759 2.39051 2.3404 2.3277C2.4032 2.2649 2.47793 2.21529 2.56019 2.18181C2.64246 2.14832 2.73059 2.13162 2.8194 2.13271C2.90821 2.13379 2.9959 2.15263 3.07733 2.18811C3.15875 2.2236 3.23225 2.27501 3.2935 2.33932L5.17646 4.22229C5.24241 4.28314 5.29537 4.35669 5.33218 4.43852C5.36899 4.52036 5.38888 4.60878 5.39065 4.6985C5.39243 4.78821 5.37606 4.87736 5.34252 4.96058C5.30898 5.04381 5.25897 5.1194 5.19549 5.18282C5.13201 5.24623 5.05636 5.29616 4.9731 5.32961C4.88984 5.36306 4.80067 5.37934 4.71096 5.37747C4.62125 5.37559 4.53285 5.35561 4.45105 5.31872C4.36926 5.28182 4.29576 5.22878 4.23498 5.16277L2.35202 3.2808ZM10.8233 10.8107C10.6985 10.9355 10.6284 11.1048 10.6284 11.2814C10.6284 11.4579 10.6985 11.6273 10.8233 11.7521L12.7063 13.6351C12.7676 13.6994 12.8411 13.7508 12.9225 13.7863C13.0039 13.8218 13.0916 13.8406 13.1804 13.8417C13.2692 13.8428 13.3574 13.8261 13.4396 13.7926C13.5219 13.7591 13.5966 13.7095 13.6594 13.6467C13.7222 13.5839 13.7718 13.5092 13.8053 13.4269C13.8388 13.3447 13.8555 13.2565 13.8544 13.1677C13.8533 13.0789 13.8345 12.9912 13.799 12.9098C13.7635 12.8284 13.7121 12.7549 13.6478 12.6936L11.7648 10.8107C11.64 10.6859 11.4706 10.6157 11.2941 10.6157C11.1175 10.6157 10.9482 10.6859 10.8233 10.8107ZM3.2935 13.6341C3.23272 13.7001 3.15922 13.7532 3.07743 13.79C2.99564 13.8269 2.90723 13.8469 2.81752 13.8488C2.72781 13.8507 2.63864 13.8344 2.55538 13.8009C2.47212 13.7675 2.39647 13.7176 2.33299 13.6541C2.26951 13.5907 2.2195 13.5151 2.18596 13.4319C2.15242 13.3487 2.13605 13.2595 2.13783 13.1698C2.1396 13.0801 2.15949 12.9917 2.1963 12.9099C2.23311 12.828 2.28607 12.7545 2.35202 12.6936L4.23498 10.8107C4.29583 10.7447 4.36938 10.6917 4.45122 10.6549C4.53305 10.6181 4.62148 10.5982 4.71119 10.5965C4.8009 10.5947 4.89005 10.6111 4.97328 10.6446C5.0565 10.6781 5.1321 10.7281 5.19551 10.7916C5.25893 10.8551 5.30886 10.9308 5.34231 11.014C5.37576 11.0973 5.39203 11.1864 5.39016 11.2762C5.38829 11.3659 5.36831 11.4543 5.33141 11.5361C5.29452 11.6179 5.24147 11.6914 5.17546 11.7521L3.2935 13.6341ZM10.8233 5.16277C11.0829 5.42235 11.5052 5.42235 11.7648 5.16277L13.6478 3.2808C13.7121 3.21955 13.7635 3.14605 13.799 3.06463C13.8345 2.98321 13.8533 2.89551 13.8544 2.8067C13.8555 2.71789 13.8388 2.62976 13.8053 2.5475C13.7718 2.46524 13.7222 2.39051 13.6594 2.3277C13.5966 2.2649 13.5219 2.21529 13.4396 2.18181C13.3574 2.14832 13.2692 2.13162 13.1804 2.13271C13.0916 2.13379 13.0039 2.15263 12.9225 2.18811C12.8411 2.2236 12.7676 2.27501 12.7063 2.33932L10.8233 4.22129C10.6985 4.34616 10.6284 4.51548 10.6284 4.69203C10.6284 4.86857 10.6985 5.03789 10.8233 5.16277Z" fill="#D9D9D9"/>
</g>
<defs>
<clipPath id="clip0_172_1242">
<rect width="16" height="16" fill="white"/>
</clipPath>
</defs>
</svg>
